<?xml version="1.0" standalone="no"?>
<!DOCTYPE svg PUBLIC "-//W3C//DTD SVG 20010904//EN"
 "http://www.w3.org/TR/2001/REC-SVG-20010904/DTD/svg10.dtd">
<svg version="1.0" xmlns="http://www.w3.org/2000/svg"
 width="512.000000pt" height="512.000000pt" viewBox="0 0 512.000000 512.000000"
 preserveAspectRatio="xMidYMid meet">
<metadata>
Created by potrace 1.11, written by Peter Selinger 2001-2013
</metadata>
<g transform="translate(0.000000,512.000000) scale(0.100000,-0.100000)"
fill="#000000" stroke="none">
<path d="M2631 5069 c-264 -143 -493 -377 -683 -700 -64 -108 -144 -277 -182
-382 -18 -51 -42 -111 -54 -133 -12 -23 -30 -63 -40 -90 -11 -27 -37 -94 -59
-149 -83 -207 -113 -293 -167 -475 -104 -355 -157 -714 -144 -983 17 -353 103
-665 248 -902 37 -60 46 -88 67 -194 13 -68 23 -125 21 -127 -2 -1 -55 -7
-118 -12 -80 -6 -97 -10 -57 -11 32 0 101 4 152 10 78 9 114 8 205 -5 83 -12
139 -14 223 -9 62 4 99 9 83 11 -38 5 -99 66 -91 92 6 20 -19 68 -44 84 -61
38 -141 145 -141 190 0 33 23 66 46 66 35 0 97 -32 82 -42 -8 -5 2 -8 24 -8
20 0 39 -4 43 -10 3 -5 31 -17 63 -27 51 -16 97 -51 139 -105 7 -9 17 -18 24
-20 7 -2 14 -18 15 -36 1 -18 40 -97 92 -189 62 -108 99 -186 118 -247 27 -89
27 -91 15 -200 -7 -61 -21 -191 -30 -288 l-17 -178 97 0 c261 0 553 48 804
131 131 44 172 63 325 155 96 58 176 100 178 95 6 -18 18 -13 94 37 296 193
535 432 733 732 102 155 120 191 103 202 -7 4 -18 8 -24 8 -5 0 -15 5 -20 10
-6 6 -46 13 -90 15 -150 9 -241 46 -285 119 -43 70 -11 165 71 210 67 37 120
41 220 20 92 -19 266 -22 298 -5 24 13 72 173 107 356 36 186 51 473 36 675
-15 199 -59 415 -121 602 -52 155 -65 188 -136 333 -193 395 -494 738 -867
989 -141 94 -146 97 -288 167 -147 73 -180 86 -339 139 -180 60 -419 110 -555
115 l-101 4 -73 -40z m74 11 c-16 -11 -33 -20 -36 -20 -3 0 -47 -27 -97 -60
-51 -33 -97 -60 -103 -60 -7 0 -9 -3 -6 -6 7 -7 -43 -50 -54 -47 -11 4 -33
-27 -36 -49 -3 -17 2 -16 39 12 l43 32 -46 -44 c-51 -48 -88 -94 -56 -69 9 8
19 12 22 10 6 -7 -44 -68 -65 -79 -15 -8 -17 -6 -13 10 3 11 8 18 12 16 4 -3
7 4 7 14 0 14 -3 16 -13 8 -7 -6 -13 -7 -13 -3 0 5 -9 0 -19 -9 -11 -10 -24
-15 -29 -12 -5 3 -15 -1 -22 -9 -9 -10 -9 -15 -1 -15 6 0 -6 -17 -26 -38 -57
-56 -85 -91 -148 -183 -56 -81 -88 -121 -70 -89 51 91 191 280 206 280 6 0 7
4 4 10 -3 5 40 56 97 113 101 100 274 227 385 282 59 29 79 32 38 5z m-265
-333 c0 -2 -10 -12 -22 -23 l-23 -19 19 23 c18 21 26 27 26 19z m-157 -21 c-4
-7 -30 -37 -57 -67 -59 -65 -50 -45 13 29 44 51 60 65 44 38z m82 -6 c-10 -11
-20 -18 -23 -15 -7 6 18 35 31 35 5 0 2 -9 -8 -20z m113 -35 c-10 -19 -10 -19
7 -5 18 14 18 13 -1 -18 -10 -19 -25 -39 -33 -45 -9 -7 -7 0 4 18 l19 30 -27
-24 c-29 -26 -34 -23 -16 12 l12 22 -24 -20 -24 -20 15 20 c30 42 40 51 59 51
16 0 18 -3 9 -21z m-88 1 c0 -2 -8 -10 -17 -17 -16 -13 -17 -12 -4 4 13 16 21
21 21 13z m-16 -96 c-15 -22 -29 -40 -31 -40 -5 0 3 15 29 53 30 43 31 32 2
-13z m56 -10 c-6 -11 -13 -20 -16 -20 -2 0 0 9 6 20 6 11 13 20 16 20 2 0 0
-9 -6 -20z m210 12 c0 -5 -7 -17 -15 -28 -14 -18 -14 -17 -4 9 12 27 19 34 19
19z m30 -33 c-7 -11 -14 -18 -17 -15 -3 3 0 12 7 21 18 21 23 19 10 -6z m203
-44 c-7 -32 -33 -56 -33 -30 0 15 26 55 35 55 1 0 0 -11 -2 -25z m92 -15 c-17
-48 -34 -80 -35 -64 0 13 39 104 45 104 2 0 -2 -18 -10 -40z m-645 10 c-6 -11
-13 -20 -16 -20 -2 0 0 9 6 20 6 11 13 20 16 20 2 0 0 -9 -6 -20z m1799 -120
l0 -35 -14 33 c-8 18 -17 49 -20 70 l-6 37 20 -35 c11 -19 20 -51 20 -70z
m-1829 70 c-6 -11 -13 -20 -16 -20 -2 0 0 9 6 20 6 11 13 20 16 20 2 0 0 -9
-6 -20z m-32 -55 c-6 -14 -13 -23 -15 -21 -5 5 15 46 22 46 3 0 -1 -11 -7 -25z
m1542 -38 c0 -23 -4 -36 -10 -32 -5 3 -10 27 -10 53 0 34 3 43 10 32 5 -8 10
-32 10 -53z m-553 31 c-3 -8 -6 -5 -6 6 -1 11 2 17 5 13 3 -3 4 -12 1 -19z
m-1287 -48 c-6 -11 -13 -20 -16 -20 -2 0 0 9 6 20 6 11 13 20 16 20 2 0 0 -9
-6 -20z m253 -35 c-9 -19 -18 -33 -21 -31 -4 5 26 66 33 66 3 0 -3 -16 -12
-35z m825 -447 c-10 -71 -21 -221 -24 -355 -4 -128 -9 -233 -12 -233 -3 0 -15
8 -26 18 -12 10 -9 4 7 -16 22 -27 27 -44 27 -86 0 -103 22 -321 34 -328 27
-18 31 -7 24 70 -3 42 -6 111 -6 152 1 41 3 59 5 40 6 -67 24 -205 30 -238 4
-24 13 -36 31 -43 38 -14 217 -39 287 -39 l60 0 -9 118 c-5 67 -5 201 0 312
l9 195 13 -235 c8 -129 19 -271 25 -315 l12 -80 34 -3 34 -3 -7 58 c-15 144
-25 312 -27 488 -4 287 0 575 9 575 4 0 15 -48 24 -108 27 -162 121 -585 149
-667 6 -16 28 -84 49 -150 50 -157 49 -155 71 -155 11 0 19 7 20 18 1 16 2 16
6 0 2 -10 6 -18 7 -18 2 0 91 -16 134 -25 13 -2 32 -7 43 -10 10 -4 19 -5 19
-3 0 2 7 55 16 118 20 143 22 161 23 284 1 149 7 134 56 -149 13 -77 27 -174
30 -215 7 -68 16 -89 38 -90 4 0 8 53 9 118 l2 117 6 -122 5 -123 72 -34 c83
-40 75 -46 94 79 16 110 16 109 29 294 6 90 8 182 4 205 -3 23 -4 38 0 35 9
-8 48 -241 41 -247 -3 -3 -5 1 -5 8 0 7 -2 11 -5 8 -3 -2 -1 -28 5 -57 6 -35
6 -102 -1 -204 -6 -84 -10 -171 -9 -195 3 -128 -75 -411 -202 -732 -157 -397
-434 -646 -971 -876 -119 -51 -217 -74 -317 -74 -153 0 -219 33 -416 210 -260
233 -417 449 -499 681 -42 122 -74 343 -89 624 l-4 80 33 -95 c39 -115 83
-195 141 -258 l44 -47 -24 50 c-38 79 -77 214 -81 280 -2 33 -8 84 -14 114 -6
29 -11 98 -11 152 0 99 0 99 25 99 17 0 25 -6 26 -17 1 -17 2 -17 6 0 8 31 30
18 42 -25 14 -47 47 -112 36 -72 -3 12 -6 43 -7 68 0 36 5 53 23 72 22 23 99
70 99 60 0 -2 -7 -21 -16 -42 -19 -44 -15 -154 5 -193 12 -21 14 -21 30 -7 10
9 20 13 24 10 3 -4 18 3 33 15 29 23 60 28 66 10 6 -19 55 1 67 27 13 30 54
30 59 0 3 -13 0 -16 -9 -11 -8 5 -10 4 -5 -4 11 -17 69 -45 89 -42 29 4 41
-45 20 -88 l-18 -36 -120 3 c-129 3 -165 15 -165 53 0 14 -5 19 -14 16 -7 -3
-19 0 -25 6 -6 6 -11 7 -11 1 0 -5 18 -28 40 -49 l41 -40 127 -3 127 -3 33 31
c43 42 64 84 71 147 l6 53 38 -36 c20 -19 37 -33 37 -30 0 14 -43 96 -56 107
-8 6 -14 16 -14 22 0 6 17 -5 38 -24 l37 -34 -34 37 c-19 21 -37 35 -41 33 -4
-3 -20 11 -34 30 -15 19 -58 53 -97 76 -39 22 -73 47 -76 55 -3 8 -9 14 -14
14 -4 0 -6 -7 -3 -15 5 -13 2 -14 -19 -6 -14 5 -54 13 -89 17 -34 3 -69 12
-77 18 -11 8 -13 8 -7 -1 5 -9 -1 -13 -19 -13 -14 0 -53 -11 -87 -25 -35 -14
-70 -22 -83 -19 -13 3 -26 1 -30 -5 -3 -7 -3 -10 2 -9 4 2 8 -2 8 -7 1 -12
-76 -78 -82 -71 -3 3 -2 44 2 91 4 48 11 81 15 75 8 -12 103 -10 116 2 3 3 15
46 26 94 12 49 23 85 24 79 2 -5 -5 -46 -15 -90 -11 -44 -18 -82 -16 -84 12
-12 33 13 39 46 4 21 19 78 33 127 20 65 32 90 47 96 12 5 15 9 9 9 -7 1 -13
8 -13 18 0 19 87 219 124 283 28 49 31 46 16 -15 -29 -122 -49 -282 -50 -405
-2 -170 -3 -160 15 -160 8 0 15 6 15 13 0 9 2 9 8 0 4 -6 44 -16 88 -22 45 -7
95 -16 113 -21 17 -5 31 -6 32 -2 12 136 30 255 41 272 6 10 8 4 4 -19 -4 -19
-9 -66 -12 -105 -3 -39 -7 -90 -9 -114 -2 -31 1 -45 11 -49 21 -8 24 -3 29 63
13 151 56 357 111 529 38 118 146 385 157 385 1 0 -5 -55 -15 -122z m-1328
-72 c-18 -49 -79 -319 -105 -466 -27 -159 -52 -371 -63 -550 -11 -186 -6 -949
8 -1155 7 -103 6 -111 -14 -135 l-21 -25 23 19 22 19 1 -44 c0 -24 6 -83 13
-131 6 -48 9 -85 6 -83 -6 4 -35 61 -73 145 -88 193 -149 426 -162 610 -2 41
-7 104 -11 140 -7 81 12 393 32 520 50 316 132 618 259 950 70 184 87 222 92
216 2 -2 -1 -15 -7 -30z m787 -573 c-2 -16 -4 -3 -4 27 0 30 2 43 4 28 2 -16
2 -40 0 -55z m560 0 c-3 -10 -5 -4 -5 12 0 17 2 24 5 18 2 -7 2 -21 0 -30z
m-570 -110 c-2 -16 -4 -5 -4 22 0 28 2 40 4 28 2 -13 2 -35 0 -50z m1389 -230
c-5 -5 -36 86 -35 101 0 6 9 -13 20 -43 10 -30 17 -56 15 -58z m-1414 51 c6
-5 -9 -22 -89 -110 -26 -28 -53 -31 -53 -6 0 31 20 91 36 107 15 14 94 22 106
9z m56 -112 c3 -19 -1 -23 -15 -20 -10 2 -19 14 -21 26 -3 19 1 23 15 20 10
-2 19 -14 21 -26z m-68 -59 c0 -7 -45 -38 -72 -51 -19 -9 -6 28 14 42 23 17
58 21 58 9z m278 -65 c19 -19 14 -29 -8 -16 -20 13 -27 28 -12 28 4 0 13 -5
20 -12z m1899 -50 c-3 -8 -6 -5 -6 6 -1 11 2 17 5 13 3 -3 4 -12 1 -19z m0
-100 c-2 -18 -4 -6 -4 27 0 33 2 48 4 33 2 -15 2 -42 0 -60z m-50 -15 l0 -68
-7 55 -7 55 -1 -56 c-2 -46 -6 -60 -29 -80 -20 -19 -25 -20 -20 -6 4 10 14 46
23 80 13 52 29 87 39 87 1 0 2 -30 2 -67z m-2590 -80 c-2 -16 -4 -5 -4 22 0
28 2 40 4 28 2 -13 2 -35 0 -50z m2589 -150 c-11 -235 -18 -275 -49 -312 -31
-37 -32 -30 -12 54 12 46 55 359 55 398 0 4 3 7 7 7 3 0 3 -66 -1 -147z m-36
-7 c-6 -61 -16 -129 -20 -151 -5 -22 -11 -56 -15 -75 -20 -121 -28 -141 -74
-182 -48 -43 -97 -68 -131 -68 -11 0 -20 1 -20 3 1 18 73 174 82 178 7 4 24
12 38 18 23 10 23 11 -7 5 -18 -3 -33 -3 -33 1 0 17 30 75 39 75 28 0 134 140
118 156 -2 2 -11 -14 -21 -35 -15 -36 -92 -118 -102 -109 -6 6 63 193 88 241
l23 42 6 -65 6 -65 1 63 c1 35 7 73 14 85 19 36 21 4 8 -117z m-2550 117 c1
-25 21 -203 26 -225 3 -17 1 -28 -5 -28 -15 0 -53 39 -47 49 3 4 6 53 7 109 1
56 5 102 10 102 5 0 9 -3 9 -7z m2379 -760 c-26 -51 -25 -117 3 -162 18 -29
19 -33 4 -22 -52 43 -61 148 -16 196 13 14 24 25 26 25 1 0 -7 -17 -17 -37z
m-2745 -248 c2 -16 18 -94 34 -172 16 -79 28 -143 26 -143 -2 0 -16 19 -33 43
-37 55 -55 167 -65 422 l-5 120 19 -120 c10 -66 21 -133 24 -150z m906 -200
c238 -230 318 -274 484 -270 147 4 248 38 522 174 96 47 174 85 174 83 0 -2
-18 -70 -39 -151 -22 -80 -43 -164 -47 -185 l-7 -39 40 6 c39 7 40 6 50 -28
l11 -35 -41 -10 c-214 -54 -559 -225 -852 -422 -139 -94 -315 -220 -321 -229
-12 -20 -22 -7 -19 23 25 191 46 432 41 473 -9 79 -54 184 -138 327 -42 71
-42 69 -53 285 -3 68 -10 145 -14 173 l-8 50 61 -67 c34 -37 104 -108 156
-158z m-836 -170 c7 -16 17 -45 21 -62 6 -30 5 -33 -19 -33 -15 0 -27 7 -30
18 -7 25 -36 152 -36 160 0 12 48 -51 64 -83z m896 -899 c0 -2 -25 -22 -55
-45 -30 -23 -55 -38 -55 -34 1 4 24 25 53 45 55 39 57 40 57 34z"/>
<path d="M2419 4903 c-13 -16 -12 -17 4 -4 9 7 17 15 17 17 0 8 -8 3 -21 -13z"/>
<path d="M2354 4839 c-3 -6 -2 -15 3 -20 5 -5 9 -1 9 11 0 23 -2 24 -12 9z"/>
<path d="M2854 3306 c11 -9 24 -16 30 -16 12 0 7 5 -24 19 -24 11 -24 11 -6
-3z"/>
<path d="M3698 3153 c7 -3 16 -2 19 1 4 3 -2 6 -13 5 -11 0 -14 -3 -6 -6z"/>
<path d="M4140 3070 c0 -5 5 -10 11 -10 5 0 7 5 4 10 -3 6 -8 10 -11 10 -2 0
-4 -4 -4 -10z"/>
<path d="M2815 3034 c6 -5 26 -23 45 -39 l35 -30 -25 28 c-14 16 -34 33 -45
39 -11 6 -15 6 -10 2z"/>
<path d="M2690 2986 c0 -3 14 -12 30 -21 17 -9 30 -13 30 -11 0 3 -13 12 -30
21 -16 9 -30 13 -30 11z"/>
<path d="M3970 2801 c0 -5 -39 -11 -87 -13 -70 -4 -101 -11 -153 -36 -58 -27
-185 -120 -176 -129 2 -2 34 10 71 27 37 17 69 29 71 27 2 -1 -3 -21 -11 -42
-16 -44 -19 -123 -7 -143 7 -10 14 -7 33 12 32 32 99 40 99 11 0 -26 40 -17
50 11 14 35 63 31 68 -6 4 -27 73 -81 80 -61 5 16 34 14 60 -5 26 -18 30 -39
6 -30 -14 5 -15 4 -4 -9 11 -13 9 -20 -15 -45 -34 -36 -50 -37 -152 -9 -159
42 -183 50 -183 60 0 6 -7 17 -15 25 -12 13 -14 11 -12 -15 2 -32 -8 -28 202
-85 128 -34 159 -40 151 -28 -3 6 11 20 33 33 22 12 48 34 60 49 31 42 54 125
48 171 l-5 39 47 -40 c75 -62 77 -65 58 -104 -8 -19 -31 -51 -49 -72 l-33 -39
45 36 c25 20 54 50 65 66 19 29 23 31 70 25 l50 -5 -39 43 c-27 30 -35 45 -26
50 9 6 6 10 -8 14 -12 4 -41 29 -64 56 -24 27 -65 60 -93 74 -39 19 -46 26
-32 31 9 4 17 11 17 15 0 5 -13 3 -29 -3 -24 -9 -41 -7 -84 6 -29 9 -64 17
-77 17 -19 0 -20 2 -10 15 10 12 10 15 -4 15 -9 0 -16 -4 -16 -9z m-181 -132
c-16 -18 -28 -37 -26 -43 6 -16 -24 -35 -55 -36 l-28 0 18 47 c18 49 33 58 99
62 20 1 19 -1 -8 -30z m81 -44 c13 -16 6 -35 -15 -35 -18 0 -28 17 -21 35 7
19 20 19 36 0z m-76 -54 c7 -11 -52 -26 -62 -16 -8 8 18 25 40 25 9 0 19 -4
22 -9z m291 -41 c3 -6 -1 -7 -9 -4 -18 7 -21 14 -7 14 6 0 13 -4 16 -10z m27
-43 c12 -19 9 -27 -11 -27 -25 0 -66 34 -57 48 8 13 56 -2 68 -21z"/>
<path d="M4330 2636 c0 -2 8 -10 18 -17 15 -13 16 -12 3 4 -13 16 -21 21 -21
13z"/>
<path d="M2125 2455 c8 -38 50 -123 76 -155 19 -23 19 -21 -1 13 -12 21 -36
68 -52 105 -16 37 -26 54 -23 37z"/>
<path d="M4349 2453 c-13 -16 -12 -17 4 -4 16 13 21 21 13 21 -2 0 -10 -8 -17
-17z"/>
<path d="M4319 2413 c-13 -16 -12 -17 4 -4 16 13 21 21 13 21 -2 0 -10 -8 -17
-17z"/>
<path d="M2680 1694 c0 -13 38 -48 70 -64 14 -7 21 -9 15 -4 -5 5 -27 25 -47
43 -21 19 -38 30 -38 25z"/>
<path d="M3491 1569 c-27 -22 -17 -25 18 -5 13 7 20 16 15 19 -5 3 -20 -3 -33
-14z"/>
<path d="M3438 1543 c7 -3 16 -2 19 1 4 3 -2 6 -13 5 -11 0 -14 -3 -6 -6z"/>
<path d="M3048 1493 c6 -2 18 -2 25 0 6 3 1 5 -13 5 -14 0 -19 -2 -12 -5z"/>
<path d="M3588 813 c7 -3 16 -2 19 1 4 3 -2 6 -13 5 -11 0 -14 -3 -6 -6z"/>
<path d="M3528 803 c7 -3 16 -2 19 1 4 3 -2 6 -13 5 -11 0 -14 -3 -6 -6z"/>
<path d="M3468 793 c7 -3 16 -2 19 1 4 3 -2 6 -13 5 -11 0 -14 -3 -6 -6z"/>
<path d="M3358 783 c6 -2 18 -2 25 0 6 3 1 5 -13 5 -14 0 -19 -2 -12 -5z"/>
<path d="M3293 773 c9 -2 25 -2 35 0 9 3 1 5 -18 5 -19 0 -27 -2 -17 -5z"/>
<path d="M3233 763 c9 -2 23 -2 30 0 6 3 -1 5 -18 5 -16 0 -22 -2 -12 -5z"/>
<path d="M3107 750 c-20 -4 -40 -10 -43 -13 -10 -10 70 5 81 14 5 5 7 8 5 8
-3 -1 -22 -5 -43 -9z"/>
<path d="M3173 753 c9 -2 23 -2 30 0 6 3 -1 5 -18 5 -16 0 -22 -2 -12 -5z"/>
<path d="M2953 723 c9 -2 23 -2 30 0 6 3 -1 5 -18 5 -16 0 -22 -2 -12 -5z"/>
<path d="M2893 713 c9 -2 23 -2 30 0 6 3 -1 5 -18 5 -16 0 -22 -2 -12 -5z"/>
<path d="M2838 703 c6 -2 18 -2 25 0 6 3 1 5 -13 5 -14 0 -19 -2 -12 -5z"/>
<path d="M2753 693 c9 -2 23 -2 30 0 6 3 -1 5 -18 5 -16 0 -22 -2 -12 -5z"/>
<path d="M2675 680 c-3 -6 1 -7 9 -4 18 7 21 14 7 14 -6 0 -13 -4 -16 -10z"/>
<path d="M2608 673 c6 -2 18 -2 25 0 6 3 1 5 -13 5 -14 0 -19 -2 -12 -5z"/>
<path d="M2548 663 c6 -2 18 -2 25 0 6 3 1 5 -13 5 -14 0 -19 -2 -12 -5z"/>
<path d="M688 2143 c7 -3 16 -2 19 1 4 3 -2 6 -13 5 -11 0 -14 -3 -6 -6z"/>
<path d="M160 1940 c-9 -6 -10 -10 -3 -10 6 0 15 5 18 10 8 12 4 12 -15 0z"/>
<path d="M1896 1302 c17 -19 24 -21 45 -12 l24 10 -26 -2 c-14 -2 -35 4 -45
12 -16 11 -15 10 2 -8z"/>
<path d="M1419 1213 c-13 -16 -12 -17 4 -4 16 13 21 21 13 21 -2 0 -10 -8 -17
-17z"/>
<path d="M1317 899 c-24 -14 -47 -69 -47 -109 0 -17 9 -49 20 -70 19 -37 19
-43 6 -69 -8 -15 -19 -55 -25 -88 -6 -36 -22 -79 -42 -111 -18 -29 -30 -55
-27 -58 3 -3 13 7 21 23 47 90 56 113 66 166 5 32 20 71 31 87 12 17 16 28 8
25 -8 -3 -20 11 -32 35 -36 75 -1 164 68 173 l31 4 -30 1 c-16 1 -38 -3 -48
-9z"/>
<path d="M2431 54 c0 -11 3 -14 6 -6 3 7 2 16 -1 19 -3 4 -6 -2 -5 -13z"/>
</g>
</svg>
