<?xml version="1.0" standalone="no"?>
<!DOCTYPE svg PUBLIC "-//W3C//DTD SVG 20010904//EN"
 "http://www.w3.org/TR/2001/REC-SVG-20010904/DTD/svg10.dtd">
<svg version="1.0" xmlns="http://www.w3.org/2000/svg"
 width="200.000000pt" height="200.000000pt" viewBox="0 0 200.000000 200.000000"
 preserveAspectRatio="xMidYMid meet">
<metadata>
Created by potrace 1.11, written by Peter Selinger 2001-2013
</metadata>
<g transform="translate(0.000000,200.000000) scale(0.100000,-0.100000)"
fill="#000000" stroke="none">
<path d="M0 1000 l0 -1000 1000 0 1000 0 0 1000 0 1000 -1000 0 -1000 0 0
-1000z m1795 500 c64 -31 134 -101 165 -165 22 -43 25 -64 25 -150 0 -86 -3
-107 -25 -150 -31 -64 -101 -134 -165 -165 -47 -24 -62 -25 -242 -28 l-193 -3
0 -170 0 -169 -160 0 -160 0 0 360 0 360 -252 -2 c-304 -4 -308 -6 -162 -88
111 -63 183 -135 208 -206 18 -54 21 -141 6 -196 -16 -55 -69 -128 -121 -165
-78 -56 -129 -63 -436 -63 l-273 0 0 160 0 160 215 0 c198 0 215 1 215 18 0
11 -33 36 -96 72 -160 91 -218 174 -218 310 0 126 60 221 177 280 l61 30 690
-2 691 -3 50 -25z"/>
<path d="M1360 1185 l0 -75 134 0 c116 0 137 3 157 19 29 23 31 81 4 111 -17
18 -30 20 -157 20 l-138 0 0 -75z"/>
</g>
</svg>
