<?xml version="1.0" standalone="no"?>
<!DOCTYPE svg PUBLIC "-//W3C//DTD SVG 20010904//EN"
 "http://www.w3.org/TR/2001/REC-SVG-20010904/DTD/svg10.dtd">
<svg version="1.0" xmlns="http://www.w3.org/2000/svg"
 width="260.000000pt" height="260.000000pt" viewBox="0 0 260.000000 260.000000"
 preserveAspectRatio="xMidYMid meet">
<metadata>
Created by potrace 1.11, written by Peter Selinger 2001-2013
</metadata>
<g transform="translate(0.000000,260.000000) scale(0.100000,-0.100000)"
fill="#000000" stroke="none">
<path d="M0 1300 l0 -1300 1300 0 1300 0 0 1300 0 1300 -1300 0 -1300 0 0
-1300z m2323 653 c80 -38 173 -122 210 -191 72 -132 74 -300 6 -435 -28 -55
-133 -158 -189 -187 -85 -43 -132 -50 -367 -50 l-223 0 0 -220 0 -220 -200 0
-200 0 0 465 0 465 -336 0 -335 0 3 -22 c2 -16 33 -39 118 -87 184 -106 265
-201 290 -342 39 -224 -123 -439 -353 -469 -40 -5 -219 -10 -399 -10 l-328 0
0 205 0 205 268 0 c270 0 292 3 292 36 0 7 -51 41 -112 76 -147 82 -246 176
-277 262 -84 230 32 468 264 542 31 10 227 13 920 11 l880 -2 68 -32z"/>
<path d="M1760 1540 l0 -100 181 0 181 0 29 29 c23 23 29 38 29 71 0 33 -6 48
-29 71 l-29 29 -181 0 -181 0 0 -100z"/>
</g>
</svg>
